<svg width="24" height="24" viewBox="0 0 24 24" fill="none" xmlns="http://www.w3.org/2000/svg">
<path fill-rule="evenodd" clip-rule="evenodd" d="M12 24C18.6274 24 24 18.6274 24 12C24 5.37258 18.6274 0 12 0C5.37258 0 0 5.37258 0 12C0 18.6274 5.37258 24 12 24ZM13.8935 15.653L14.3168 15.0181C14.6319 14.5454 15.2706 14.4177 15.7432 14.7328L17.5418 15.9319C17.9544 16.2069 18.112 16.7372 17.9167 17.1929L17.6849 17.7339C17.5088 18.1448 17.1928 18.4799 16.7929 18.6799C16.4588 18.8469 16.107 18.9764 15.734 18.9939C14.5582 19.0492 11.6616 18.7914 8.43511 15.5649C5.20863 12.3384 4.95082 9.44177 5.0061 8.26603C5.02364 7.89295 5.1531 7.54116 5.32013 7.2071C5.52006 6.80724 5.85525 6.4912 6.26615 6.31509L6.80705 6.08328C7.26282 5.88795 7.79306 6.04558 8.06812 6.45815L9.26719 8.25676C9.58231 8.72944 9.45458 9.36808 8.9819 9.6832L8.34702 10.1065C8.2203 10.1909 8.11217 10.3027 8.07326 10.4499C7.94582 10.9322 7.88828 12.2127 9.83778 14.1622C11.7873 16.1117 13.0678 16.0542 13.5501 15.9267C13.6973 15.8878 13.8091 15.7797 13.8935 15.653ZM11.1 5C11.1 4.50294 11.5029 4.1 12 4.1C16.363 4.1 19.9 7.63695 19.9 12C19.9 12.4971 19.4971 12.9 19 12.9C18.5029 12.9 18.1 12.4971 18.1 12C18.1 8.63106 15.3689 5.9 12 5.9C11.5029 5.9 11.1 5.49706 11.1 5ZM12 7.1C11.5029 7.1 11.1 7.50294 11.1 8C11.1 8.49706 11.5029 8.9 12 8.9C13.7121 8.9 15.1 10.2879 15.1 12C15.1 12.4971 15.5029 12.9 16 12.9C16.4971 12.9 16.9 12.4971 16.9 12C16.9 9.2938 14.7062 7.1 12 7.1Z" fill="#262F56"/>
</svg>
