<svg width="22" height="18" viewBox="0 0 22 18" fill="none" xmlns="http://www.w3.org/2000/svg">
<path d="M21.5 2.77249C20.7271 3.10042 19.8978 3.32282 19.0264 3.42212C19.9161 2.91196 20.5972 2.10278 20.92 1.14155C20.0854 1.61398 19.1642 1.95703 18.1826 2.143C17.3966 1.3401 16.2785 0.839996 15.0384 0.839996C12.6593 0.839996 10.7303 2.68706 10.7303 4.96385C10.7303 5.28676 10.7683 5.60214 10.8418 5.90373C7.26201 5.73156 4.08768 4.08932 1.96314 1.59388C1.59176 2.20204 1.38049 2.91068 1.38049 3.66712C1.38049 5.0983 2.14161 6.36108 3.2964 7.09988C2.5904 7.07728 1.92639 6.89131 1.34508 6.5822V6.63372C1.34508 8.63156 2.83056 10.2989 4.80024 10.6784C4.43936 10.7714 4.05882 10.8229 3.66514 10.8229C3.38696 10.8229 3.11794 10.7965 2.85417 10.7463C3.40267 12.386 4.99315 13.5784 6.87756 13.6111C5.40388 14.7169 3.54573 15.374 1.52749 15.374C1.17976 15.374 0.837236 15.3539 0.5 15.3175C2.40671 16.4898 4.67036 17.1733 7.10327 17.1733C15.028 17.1733 19.3597 10.8883 19.3597 5.43757L19.3453 4.90356C20.1917 4.32552 20.9239 3.59927 21.5 2.77249Z" fill="#262F56"/>
</svg>
